:version 1.10
:name ASF
:units
  mass 1
  length 1
  angle deg
:documentation
  ASF file generated by Kaydara
:root
  axis xyz
  order  tx ty tz rx ry rz
  position 0 0 0
  orientation 0 0 0
:bonedata
  begin
    id 1
    name RightUpLegDummy
    direction -0.718183 -0.695806 0.00816078
    length 4.904
    axis 0 0 0 xyz
  end
  begin
    id 2
    name RightUpLeg
    direction -0.0736652 -0.994202 0.0783343
    length 17.4976
    axis -2.72909 -3.00389 -4.00133 xyz
    dof rx ry rz
  end
  begin
    id 3
    name RightLeg
    direction -0.0389037 -0.994596 -0.0962598
    length 16.5821
    axis 3.95836 -18.5909 -4.46993 xyz
    dof rx ry rz
  end
  begin
    id 4
    name RightFoot
    direction -0.311643 -0.412678 0.855906
    length 3.77069
    axis -1.99483 -18.8351 -3.27644 xyz
    dof rx ry rz
  end
  begin
    id 5
    name RightToes
    direction -0.317852 0.0389852 0.947339
    length 3.85082
    axis -2.00228 -18.1713 -3.25211 xyz
    dof rx ry rz
  end
  begin
    id 6
    name SpineDummy
    direction 8.3039e-015 1 4.44677e-016
    length 4.6813
    axis 0 0 0 xyz
  end
  begin
    id 7
    name Spine
    direction -0.000262373 0.999988 0.00493267
    length 10.1015
    axis -0.00246081 0.00062579 0.0150362 xyz
    dof rx ry rz
  end
  begin
    id 8
    name Spine1
    direction 0 0 0
    length 0
    axis -0.00349562 0.000650293 0.0196666 xyz
    dof rx ry rz
  end
  begin
    id 9
    name HEadDummy
    direction -0.000343232 0.999999 0.00123745
    length 3.43865
    axis -0.00349562 0.000650293 0.0196666 xyz
  end
  begin
    id 10
    name HEad
    direction -0.0461221 0.980933 0.188796
    length 5.12695
    axis -0.00351404 -7.04812 0.0199272 xyz
    dof rx ry rz
  end
  begin
    id 11
    name LeftShoulder1Dummy
    direction 0.998904 -0.0399089 -0.0244534
    length 3.5433
    axis -0.00349562 0.000650293 0.0196666 xyz
  end
  begin
    id 12
    name LeftShoulder1
    direction 0.99951 1.64443e-005 0.0312999
    length 4.05031
    axis -0.00349562 0.000650293 0.0196666 xyz
    dof rx ry rz
  end
  begin
    id 13
    name LeftArm
    direction 0.984791 0.0515299 0.165927
    length 12.9126
    axis -64.823 -10.7743 5.20463 xyz
    dof rx ry rz
  end
  begin
    id 14
    name LeftForeArm
    direction 0.984968 0.0534808 0.16425
    length 10.8596
    axis -30.0462 -7.70601 1.87451 xyz
    dof rx ry rz
  end
  begin
    id 15
    name LeftHand
    direction 0.975871 0.0289682 0.216418
    length 6.62295
    axis -20.1348 -6.98077 1.86072 xyz
    dof rx ry rz
  end
  begin
    id 16
    name RightShoulderDummy
    direction -0.998877 -0.0405946 -0.0244307
    length 3.5433
    axis -0.00349562 0.000650293 0.0196666 xyz
  end
  begin
    id 17
    name RightShoulder
    direction -0.998933 -0.0249743 -0.0388558
    length 4.05031
    axis -0.0205316 -4.02113 1.41395 xyz
    dof rx ry rz
  end
  begin
    id 18
    name RightArm
    direction -0.997559 0.068664 0.0127103
    length 12.9638
    axis -67.3882 1.84188 -6.15987 xyz
    dof rx ry rz
  end
  begin
    id 19
    name RightForeArm
    direction -0.991508 0.0912848 0.0926241
    length 10.8312
    axis -22.1975 3.41087 -4.28711 xyz
    dof rx ry rz
  end
  begin
    id 20
    name RightHand
    direction -0.989262 0.0600788 0.133232
    length 6.57864
    axis -12.2911 2.17515 -4.39675 xyz
    dof rx ry rz
  end
  begin
    id 21
    name LeftUpLegDummy
    direction 0.718183 -0.695806 0.00816078
    length 4.904
    axis 0 0 0 xyz
  end
  begin
    id 22
    name LeftUpLeg
    direction 0.0831398 -0.99469 0.0606531
    length 17.4976
    axis -1.71016 2.29552 4.63832 xyz
    dof rx ry rz
  end
  begin
    id 23
    name LeftLeg
    direction 0.0498442 -0.991778 -0.117862
    length 16.5821
    axis 5.13757 15.5727 5.13348 xyz
    dof rx ry rz
  end
  begin
    id 24
    name LeftFoot
    direction 0.269026 -0.433896 0.85986
    length 3.77069
    axis -0.576502 15.6961 4.10267 xyz
    dof rx ry rz
  end
  begin
    id 25
    name LeftToes
    direction 0.277311 0.0251143 0.960452
    length 3.85048
    axis -0.576502 15.6961 4.10267 xyz
    dof rx ry rz
  end
:hierarchy
  begin
    root RightUpLegDummy SpineDummy LeftUpLegDummy
    RightUpLegDummy RightUpLeg
    RightUpLeg RightLeg
    RightLeg RightFoot
    RightFoot RightToes
    SpineDummy Spine
    Spine Spine1
    Spine1 HEadDummy LeftShoulder1Dummy RightShoulderDummy
    HEadDummy HEad
    LeftShoulder1Dummy LeftShoulder1
    LeftShoulder1 LeftArm
    LeftArm LeftForeArm
    LeftForeArm LeftHand
    RightShoulderDummy RightShoulder
    RightShoulder RightArm
    RightArm RightForeArm
    RightForeArm RightHand
    LeftUpLegDummy LeftUpLeg
    LeftUpLeg LeftLeg
    LeftLeg LeftFoot
    LeftFoot LeftToes
  end

:SAMPLES-PER-SECOND 30
:FULLY-SPECIFIED
:DEGREES
46
root  -5.02353 23.424 84.8174 -170.837 8.22861 -174.599
RightUpLeg  -73.1333 -7.41383 8.60432
RightLeg  104.358 20.0707 -13.7191
RightFoot  -40.6616 2.1435 8.19126
RightToes  -1.16415e-010 -3.18055e-015 -2.98177e-016
Spine  31.1439 0.56803 7.69854
Spine1  1.84013 1.08276 2.57908
HEad  -10.3884 -3.68442 -0.386055
LeftShoulder1  -3.88251e-019 9.70628e-020 -3.87848e-018
LeftArm  -25.6631 14.5474 -54.9761
LeftForeArm  3.10734 -44.1151 11.2658
LeftHand  -2.96735 -8.2209 25.9012
RightShoulder  5.05983 9.42165 24.5131
RightArm  -1.37123 -25.2098 28.4117
RightForeArm  0.373246 35.8634 -19.8525
RightHand  -3.59053 5.36017 -37.1751
LeftUpLeg  -71.6543 9.77555 4.10339
LeftLeg  108.626 -17.6312 11.1063
LeftFoot  -44.7009 -2.4212 -8.10647
LeftToes  1.69338e-011 3.79281e-011 -2.20049e-011
47
root  -4.99786 23.4088 84.857 -170.874 8.08496 -174.545
RightUpLeg  -73.1784 -7.41743 8.74805
RightLeg  104.334 20.1174 -13.8654
RightFoot  -40.6219 2.13418 8.16605
RightToes  -1.16415e-010 -3.18055e-015 -2.98177e-016
Spine  30.7498 0.52229 7.81776
Spine1  3.35934 1.07167 2.30829
HEad  -8.92578 -3.90987 -1.13012
LeftShoulder1  -3.88251e-019 9.70628e-020 -3.87848e-018
LeftArm  -26.5959 14.4546 -55.1877
LeftForeArm  2.87365 -44.074 11.2358
LeftHand  -3.01568 -8.28399 26.1854
RightShoulder  4.84632 9.24558 23.6103
RightArm  -2.34366 -24.854 30.0926
RightForeArm  0.65787 35.5329 -19.643
RightHand  -3.46061 4.87885 -37.4708
LeftUpLeg  -71.7742 9.71423 4.29542
LeftLeg  108.705 -17.5679 10.917
LeftFoot  -44.6242 -2.39399 -8.03201
LeftToes  1.69338e-011 3.79281e-011 -2.20049e-011
48
root  -4.98016 23.4418 84.8912 -170.825 8.01376 -174.494
RightUpLeg  -73.2048 -7.49509 8.91858
RightLeg  104.169 20.0821 -13.8799
RightFoot  -40.5377 2.10287 8.06526
RightToes  -1.16415e-010 -3.18055e-015 -2.98177e-016
Spine  30.9197 0.315602 8.07942
Spine1  3.65392 1.04888 1.6604
HEad  -7.93423 -3.94082 -1.60384
LeftShoulder1  -3.88251e-019 9.70628e-020 -3.87848e-018
LeftArm  -26.6874 15.1611 -54.9776
LeftForeArm  3.00918 -44.3267 11.3483
LeftHand  -2.99073 -8.20554 26.1254
RightShoulder  4.83274 9.21547 23.5864
RightArm  -2.26653 -24.513 30.6587
RightForeArm  0.42407 35.4659 -19.5864
RightHand  -3.42295 4.67652 -37.7762
LeftUpLeg  -71.8462 9.72998 4.42174
LeftLeg  108.579 -17.4722 10.7493
LeftFoot  -44.5133 -2.3581 -7.93591
LeftToes  1.69338e-011 3.79281e-011 -2.20049e-011
49
root  -4.95896 23.5049 84.9073 -170.673 7.9281 -174.54
RightUpLeg  -73.2634 -7.57004 8.9946
RightLeg  103.925 20.0339 -13.9156
RightFoot  -40.4491 2.08517 8.02112
RightToes  -1.16415e-010 -3.18055e-015 -2.98177e-016
Spine  31.0404 0.0969631 8.2297
Spine1  3.78694 0.988866 1.0491
HEad  -7.70832 -3.75204 -2.00166
LeftShoulder1  -3.88251e-019 9.70628e-020 -3.87848e-018
LeftArm  -26.5714 15.9524 -54.6327
LeftForeArm  3.56314 -44.3918 11.4056
LeftHand  -2.97182 -8.27305 25.8416
RightShoulder  4.93705 9.28075 24.072
RightArm  -1.97183 -23.8879 30.6425
RightForeArm  0.301963 35.4705 -19.5835
RightHand  -3.53415 4.99327 -37.8221
LeftUpLeg  -71.9123 9.69285 4.41858
LeftLeg  108.289 -17.3761 10.6562
LeftFoot  -44.396 -2.32321 -7.84437
LeftToes  1.69338e-011 3.79281e-011 -2.20049e-011
50
root  -4.9347 23.5812 84.9004 -170.475 7.84985 -174.665
RightUpLeg  -73.3023 -7.5178 8.9381
RightLeg  103.618 20.0095 -14.0646
RightFoot  -40.3681 2.08066 8.02854
RightToes  -1.16415e-010 -3.18055e-015 -2.98177e-016
Spine  30.6078 0.0239729 8.209
Spine1  4.71758 0.9506 0.744392
HEad  -8.10089 -3.59088 -2.3125
LeftShoulder1  -3.88251e-019 9.70628e-020 -3.87848e-018
LeftArm  -26.8689 16.2752 -54.5522
LeftForeArm  4.15434 -44.1226 11.3252
LeftHand  -3.01584 -8.46916 25.8406
RightShoulder  4.98203 9.28672 24.3221
RightArm  -2.32096 -23.1676 30.8913
RightForeArm  0.441336 35.4516 -19.5777
RightHand  -3.64632 5.30658 -37.8833
LeftUpLeg  -71.9238 9.60832 4.32477
LeftLeg  107.933 -17.2944 10.6269
LeftFoot  -44.3273 -2.30389 -7.79436
LeftToes  1.69338e-011 3.79281e-011 -2.20049e-011
51
root  -4.9155 23.664 84.8782 -170.353 7.8168 -174.747
RightUpLeg  -73.1871 -7.35703 8.86107
RightLeg  103.26 19.9929 -14.2784
RightFoot  -40.2852 2.07719 8.04098
RightToes  -1.16415e-010 -3.18055e-015 -2.98177e-016
Spine  30.22 0.037323 8.1944
Spine1  5.51412 0.973647 0.607433
HEad  -8.3372 -3.60262 -2.4727
LeftShoulder1  -3.88251e-019 9.70628e-020 -3.87848e-018
LeftArm  -27.2917 16.6294 -54.717
LeftForeArm  4.41406 -43.8718 11.2356
LeftHand  -3.02607 -8.30833 26.2279
RightShoulder  4.98148 9.23938 24.41
RightArm  -2.74265 -22.7472 31.0821
RightForeArm  0.325312 35.4389 -19.5634
RightHand  -3.6504 5.17114 -38.3718
LeftUpLeg  -71.7877 9.52082 4.28654
LeftLeg  107.591 -17.2251 10.6201
LeftFoot  -44.2919 -2.31626 -7.84811
LeftToes  1.69338e-011 3.79281e-011 -2.20049e-011
52
root  -4.90235 23.7513 84.8469 -170.357 7.78615 -174.73
RightUpLeg  -72.8687 -7.24158 8.8581
RightLeg  102.9 19.9581 -14.4458
RightFoot  -40.2321 2.08195 8.07789
RightToes  -1.16415e-010 -3.18055e-015 -2.98177e-016
Spine  30.6058 -0.0340907 8.28185
Spine1  4.9776 0.985708 0.433918
HEad  -7.98757 -3.61073 -2.49891
LeftShoulder1  -3.88251e-019 9.70628e-020 -3.87848e-018
LeftArm  -27.3476 17.6274 -54.7888
LeftForeArm  4.28055 -43.8755 11.2298
LeftHand  -2.90038 -7.64678 26.4407
RightShoulder  5.071 9.27638 24.8578
RightArm  -2.28719 -22.6575 30.4975
RightForeArm  -0.282656 35.4124 -19.5159
RightHand  -3.6188 4.84635 -39.1668
LeftUpLeg  -71.4913 9.40047 4.3737
LeftLeg  107.272 -17.1741 10.6483
LeftFoot  -44.2337 -2.35035 -7.98585
LeftToes  1.69338e-011 3.79281e-011 -2.20049e-011
53
root  -4.88969 23.8358 84.8052 -170.407 7.72772 -174.714
RightUpLeg  -72.484 -7.2603 8.86679
RightLeg  102.614 19.9048 -14.5057
RightFoot  -40.26 2.10175 8.15072
RightToes  -1.16415e-010 -3.18055e-015 -2.98177e-016
Spine  31.4011 -0.19463 8.35606
Spine1  3.71141 0.931363 0.232599
HEad  -7.47819 -3.5057 -2.38539
LeftShoulder1  -3.88251e-019 9.70628e-020 -3.87848e-018
LeftArm  -27.1805 18.8601 -54.6294
LeftForeArm  3.96452 -43.9043 11.2247
LeftHand  -2.71269 -7.06685 25.9425
RightShoulder  5.23083 9.40148 25.5362
RightArm  -1.28049 -22.7036 29.4489
RightForeArm  -0.901406 35.3327 -19.4322
RightHand  -3.65263 4.8012 -39.6653
LeftUpLeg  -71.1401 9.24813 4.45881
LeftLeg  106.961 -17.1483 10.7378
LeftFoot  -44.1732 -2.37533 -8.09208
LeftToes  1.69338e-011 3.79281e-011 -2.20049e-011
54
root  -4.87668 23.9053 84.754 -170.403 7.69885 -174.793
RightUpLeg  -72.2143 -7.35765 8.80045
RightLeg  102.441 19.8485 -14.4688
RightFoot  -40.3538 2.11964 8.19391
RightToes  -1.16415e-010 -3.18055e-015 -2.98177e-016
Spine  31.7609 -0.275547 8.32146
Spine1  3.10239 0.88656 0.120454
HEad  -7.3721 -3.45499 -2.13121
LeftShoulder1  -3.88251e-019 9.70628e-020 -3.87848e-018
LeftArm  -27.1841 19.5342 -54.4383
LeftForeArm  3.78303 -43.7532 11.1529
LeftHand  -2.60608 -7.03184 25.0388
RightShoulder  5.30879 9.46594 25.8557
RightArm  -0.787359 -22.8895 28.8206
RightForeArm  -1.10369 35.2538 -19.3696
RightHand  -3.71581 5.00085 -39.5895
LeftUpLeg  -70.8553 9.17589 4.4004
LeftLeg  106.706 -17.1262 10.8103
LeftFoot  -44.1783 -2.38376 -8.12085
LeftToes  1.69338e-011 3.79281e-011 -2.20049e-011
55
root  -4.86718 23.9508 84.6977 -170.328 7.73497 -174.896
RightUpLeg  -72.0967 -7.45816 8.72172
RightLeg  102.373 19.8008 -14.3755
RightFoot  -40.4555 2.12024 8.16313
RightToes  -1.16415e-010 -3.18055e-015 -2.98177e-016
Spine  31.6144 -0.211785 8.24817
Spine1  3.24059 0.918649 0.150621
HEad  -7.66826 -3.51529 -1.90567
LeftShoulder1  -3.88251e-019 9.70628e-020 -3.87848e-018
LeftArm  -27.3103 19.7144 -54.3564
LeftForeArm  3.81986 -43.6434 11.11
LeftHand  -2.58734 -7.16038 24.6108
RightShoulder  5.27834 9.42172 25.7685
RightArm  -0.990018 -23.2597 28.7114
RightForeArm  -1.08437 35.2451 -19.3648
RightHand  -3.73005 5.11437 -39.3363
LeftUpLeg  -70.6854 9.25455 4.26638
LeftLeg  106.583 -17.0829 10.7599
LeftFoot  -44.2383 -2.39209 -8.13356
LeftToes  1.69338e-011 3.79281e-011 -2.20049e-011
56
root  -4.86004 23.971 84.6379 -170.215 7.77867 -174.908
RightUpLeg  -72.0473 -7.5404 8.74126
RightLeg  102.378 19.7691 -14.2731
RightFoot  -40.5613 2.11723 8.11642
RightToes  -1.16415e-010 -3.18055e-015 -2.98177e-016
Spine  31.5122 -0.11918 8.21578
Spine1  3.22475 0.96379 0.307548
HEad  -8.04846 -3.479 -1.88853
LeftShoulder1  -3.88251e-019 9.70628e-020 -3.87848e-018
LeftArm  -27.2694 19.9999 -54.2584
LeftForeArm  3.7596 -43.7964 11.1693
LeftHand  -2.55826 -6.86609 24.9279
RightShoulder  5.26006 9.37946 25.7469
RightArm  -1.18218 -23.6406 28.5265
RightForeArm  -1.16722 35.2867 -19.3884
RightHand  -3.72765 5.11802 -39.3006
LeftUpLeg  -70.6103 9.39688 4.22291
LeftLeg  106.594 -17.0418 10.6454
LeftFoot  -44.3059 -2.40163 -8.1484
LeftToes  1.69338e-011 3.79281e-011 -2.20049e-011
57
root  -4.84809 23.9711 84.5763 -170.089 7.79433 -174.86
RightUpLeg  -72.0216 -7.56857 8.81722
RightLeg  102.432 19.7665 -14.2242
RightFoot  -40.7043 2.13053 8.12456
RightToes  -1.16415e-010 -3.18055e-015 -2.98177e-016
Spine  31.6492 -0.0549747 8.16257
Spine1  2.81541 0.972052 0.554362
HEad  -8.40536 -3.33341 -1.9543
LeftShoulder1  -3.88251e-019 9.70628e-020 -3.87848e-018
LeftArm  -27.1075 20.3813 -54.0867
LeftForeArm  3.4352 -43.9843 11.2293
LeftHand  -2.48318 -6.35186 25.2735
RightShoulder  5.28566 9.39689 25.8593
RightArm  -1.10842 -23.9763 28.1212
RightForeArm  -1.32618 35.356 -19.4268
RightHand  -3.76447 5.19965 -39.379
LeftUpLeg  -70.582 9.48626 4.27508
LeftLeg  106.658 -17.0436 10.6173
LeftFoot  -44.4137 -2.41214 -8.15522
LeftToes  1.69338e-011 3.79281e-011 -2.20049e-011
